HIERARCHY
ROOT Hip
{
	OFFSET 0.044400 0.338226 -0.086373
	CHANNELS 6 Xposition Yposition Zposition Xrotation Yrotation Zrotation
	JOINT LowerSpine
	{
		OFFSET 0.000000 0.154442 0.259456
		CHANNELS 6 Xposition Yposition Zposition Xrotation Yrotation Zrotation
		JOINT MiddleSpine
		{
			OFFSET -0.000000 -0.011133 0.236774
			CHANNELS 3 Xrotation Yrotation Zrotation
			JOINT Chest
			{
				OFFSET -0.000000 0.058694 0.292978
				CHANNELS 3 Xrotation Yrotation Zrotation
				JOINT Neck
				{
					OFFSET -0.000000 0.012356 0.660221
					CHANNELS 6 Xposition Yposition Zposition Xrotation Yrotation Zrotation
					JOINT Head
					{
						OFFSET -0.000003 -0.101410 0.372834
						CHANNELS 3 Xrotation Yrotation Zrotation
						End Site
						{
							OFFSET 0.000000 -0.001598 0.053543
						}
					}
				}
				JOINT LClavicle
				{
					OFFSET 0.059990 -0.196462 0.637146
					CHANNELS 6 Xposition Yposition Zposition Xrotation Yrotation Zrotation
					JOINT LShoulder
					{
						OFFSET 0.350465 0.147876 0.091389
						CHANNELS 3 Xrotation Yrotation Zrotation
						JOINT LForearm
						{
							OFFSET 0.827173 0.007168 -0.002932
							CHANNELS 3 Xrotation Yrotation Zrotation
							JOINT LHand
							{
								OFFSET 0.690037 0.004133 0.002002
								CHANNELS 3 Xrotation Yrotation Zrotation
								JOINT LFinger1
								{
									OFFSET 0.267439 -0.074281 0.023388
									CHANNELS 6 Xposition Yposition Zposition Xrotation Yrotation Zrotation
									JOINT LFinger11
									{
										OFFSET 0.100036 -0.017626 -0.024394
										CHANNELS 3 Xrotation Yrotation Zrotation
										JOINT LFinger12
										{
											OFFSET 0.068292 -0.012037 -0.016657
											CHANNELS 3 Xrotation Yrotation Zrotation
											End Site
											{
												OFFSET 0.050720 -0.008226 -0.015141
											}
										}
									}
								}
								JOINT LFinger2
								{
									OFFSET 0.271429 -0.006468 0.027009
									CHANNELS 6 Xposition Yposition Zposition Xrotation Yrotation Zrotation
									JOINT LFinger21
									{
										OFFSET 0.123687 0.000731 0.000344
										CHANNELS 3 Xrotation Yrotation Zrotation
										JOINT LFinger22
										{
											OFFSET 0.068561 0.000417 0.000210
											CHANNELS 3 Xrotation Yrotation Zrotation
											End Site
											{
												OFFSET 0.053434 -0.000070 -0.003773
											}
										}
									}
								}
								JOINT LFinger3
								{
									OFFSET 0.257236 0.060858 0.018026
									CHANNELS 6 Xposition Yposition Zposition Xrotation Yrotation Zrotation
									JOINT LFinger31
									{
										OFFSET 0.112235 0.007028 -0.005681
										CHANNELS 3 Xrotation Yrotation Zrotation
										JOINT LFinger32
										{
											OFFSET 0.063958 0.004018 -0.003217
											CHANNELS 3 Xrotation Yrotation Zrotation
											End Site
											{
												OFFSET 0.053108 0.002511 -0.006529
											}
										}
									}
								}
								JOINT LFinger4
								{
									OFFSET 0.238705 0.105101 -0.018139
									CHANNELS 6 Xposition Yposition Zposition Xrotation Yrotation Zrotation
									JOINT LFinger41
									{
										OFFSET 0.069034 0.019057 -0.014398
										CHANNELS 3 Xrotation Yrotation Zrotation
										JOINT LFinger42
										{
											OFFSET 0.050624 0.013983 -0.010542
											CHANNELS 3 Xrotation Yrotation Zrotation
											End Site
											{
												OFFSET 0.050433 0.011572 -0.013857
											}
										}
									}
								}
								JOINT LFinger0
								{
									OFFSET 0.055325 -0.041941 -0.041874
									CHANNELS 6 Xposition Yposition Zposition Xrotation Yrotation Zrotation
									JOINT LFinger01
									{
										OFFSET 0.103004 -0.077658 -0.033827
										CHANNELS 3 Xrotation Yrotation Zrotation
										JOINT LFinger02
										{
											OFFSET 0.067827 -0.048866 -0.024270
											CHANNELS 3 Xrotation Yrotation Zrotation
											End Site
											{
												OFFSET 0.042516 -0.029114 -0.014636
											}
										}
									}
								}
							}
						}
					}
				}
				JOINT RClavicle
				{
					OFFSET -0.059990 -0.196459 0.637146
					CHANNELS 6 Xposition Yposition Zposition Xrotation Yrotation Zrotation
					JOINT RShoulder
					{
						OFFSET -0.350526 0.147902 0.091406
						CHANNELS 3 Xrotation Yrotation Zrotation
						JOINT RForearm
						{
							OFFSET -0.827173 0.007168 -0.002932
							CHANNELS 3 Xrotation Yrotation Zrotation
							JOINT RHand
							{
								OFFSET -0.690037 0.004133 0.002002
								CHANNELS 3 Xrotation Yrotation Zrotation
								JOINT RFinger1
								{
									OFFSET -0.267439 -0.074281 0.023391
									CHANNELS 6 Xposition Yposition Zposition Xrotation Yrotation Zrotation
									JOINT RFinger11
									{
										OFFSET -0.100036 -0.017626 -0.024394
										CHANNELS 3 Xrotation Yrotation Zrotation
										JOINT RFinger12
										{
											OFFSET -0.068292 -0.012037 -0.016660
											CHANNELS 3 Xrotation Yrotation Zrotation
											End Site
											{
												OFFSET -0.050720 -0.008226 -0.015141
											}
										}
									}
								}
								JOINT RFinger2
								{
									OFFSET -0.271429 -0.006468 0.027012
									CHANNELS 6 Xposition Yposition Zposition Xrotation Yrotation Zrotation
									JOINT RFinger21
									{
										OFFSET -0.123690 0.000731 0.000344
										CHANNELS 3 Xrotation Yrotation Zrotation
										JOINT RFinger22
										{
											OFFSET -0.068561 0.000420 0.000210
											CHANNELS 3 Xrotation Yrotation Zrotation
											End Site
											{
												OFFSET -0.053434 -0.000070 -0.003773
											}
										}
									}
								}
								JOINT RFinger3
								{
									OFFSET -0.257236 0.060858 0.018026
									CHANNELS 6 Xposition Yposition Zposition Xrotation Yrotation Zrotation
									JOINT RFinger31
									{
										OFFSET -0.112235 0.007028 -0.005681
										CHANNELS 3 Xrotation Yrotation Zrotation
										JOINT RFinger32
										{
											OFFSET -0.063958 0.004018 -0.003217
											CHANNELS 3 Xrotation Yrotation Zrotation
											End Site
											{
												OFFSET -0.053108 0.002511 -0.006529
											}
										}
									}
								}
								JOINT RFinger4
								{
									OFFSET -0.238706 0.105101 -0.018138
									CHANNELS 6 Xposition Yposition Zposition Xrotation Yrotation Zrotation
									JOINT RFinger41
									{
										OFFSET -0.069034 0.019057 -0.014395
										CHANNELS 3 Xrotation Yrotation Zrotation
										JOINT RFinger42
										{
											OFFSET -0.050624 0.013983 -0.010540
											CHANNELS 3 Xrotation Yrotation Zrotation
											End Site
											{
												OFFSET -0.050433 0.011572 -0.013857
											}
										}
									}
								}
								JOINT RFinger0
								{
									OFFSET -0.055325 -0.041938 -0.041871
									CHANNELS 6 Xposition Yposition Zposition Xrotation Yrotation Zrotation
									JOINT RFinger01
									{
										OFFSET -0.103004 -0.077661 -0.033832
										CHANNELS 3 Xrotation Yrotation Zrotation
										JOINT RFinger02
										{
											OFFSET -0.067825 -0.048866 -0.024267
											CHANNELS 3 Xrotation Yrotation Zrotation
											End Site
											{
												OFFSET -0.042516 -0.029114 -0.014636
											}
										}
									}
								}
							}
						}
					}
				}
			}
		}
	}
	JOINT RThigh
	{
		OFFSET -0.306771 0.025164 0.117281
		CHANNELS 6 Xposition Yposition Zposition Xrotation Yrotation Zrotation
		JOINT RShin
		{
			OFFSET -0.022210 0.000000 -1.207231
			CHANNELS 3 Xrotation Yrotation Zrotation
			JOINT RFoot
			{
				OFFSET -0.000000 0.000000 -1.185430
				CHANNELS 3 Xrotation Yrotation Zrotation
				JOINT RToe
				{
					OFFSET 0.000000 -0.272451 -0.130290
					CHANNELS 3 Xrotation Yrotation Zrotation
					End Site
					{
						OFFSET 0.000000 -0.053567 0.000000
					}
				}
			}
		}
	}
	JOINT LThigh
	{
		OFFSET 0.306765 0.025166 0.117289
		CHANNELS 6 Xposition Yposition Zposition Xrotation Yrotation Zrotation
		JOINT LShin
		{
			OFFSET 0.022212 -0.000000 -1.207239
			CHANNELS 3 Xrotation Yrotation Zrotation
			JOINT LFoot
			{
				OFFSET 0.000000 -0.000000 -1.185431
				CHANNELS 3 Xrotation Yrotation Zrotation
				JOINT LToe
				{
					OFFSET -0.000000 -0.272454 -0.130289
					CHANNELS 3 Xrotation Yrotation Zrotation
					End Site
					{
						OFFSET 0.000000 -0.053567 0.000000
					}
				}
			}
		}
	}
}
MOTION
Frames: 6
Frame Time: 0.041667
0.059542 0.258492 2.378081 5.050408 -1.144780 -0.000020 0.000000 0.154442 0.259456 0.000001 0.000009 0.000003 0.022393 0.818742 1.519711 -0.012016 2.730698 5.070929 -0.000000 0.012357 0.660221 0.000007 -0.000020 -0.000019 0.000007 -0.000075 0.000030 0.059990 -0.196462 0.637146 0.000011 14.409583 -0.000006 59.065939 38.702044 -61.627738 0.000003 0.000003 -1.288517 0.000016 -0.000000 0.000001 0.267438 -0.074282 0.023388 0.000003 -0.000008 -0.000006 -0.000006 0.000007 0.000004 -0.000005 0.000009 -0.000001 0.271428 -0.006468 0.027009 0.000004 -0.000006 0.000000 0.000002 -0.000000 -0.000006 0.000008 0.000002 0.000004 0.257235 0.060858 0.018026 0.000003 -0.000001 0.000001 -0.000001 -0.000001 0.000001 0.000004 -0.000003 -0.000001 0.238705 0.105100 -0.018139 -0.000002 0.000002 0.000003 0.000001 0.000009 0.000004 0.000004 0.000001 -0.000004 0.055325 -0.041941 -0.041874 -0.000003 -0.000002 -0.000005 -0.000006 -0.000004 0.000006 0.000003 0.000012 -0.000016 -0.059990 -0.196459 0.637146 -0.000015 -14.798252 -0.000011 62.711559 -33.642899 69.704382 0.000007 0.000016 -0.049769 0.000026 0.000014 0.000011 -0.267439 -0.074281 0.023391 0.000022 0.000018 0.000006 -0.000000 -0.000002 0.000002 -0.000054 -0.000015 -0.000030 -0.271430 -0.006468 0.027012 0.000014 0.000018 0.000002 0.000015 0.000021 -0.000003 -0.000016 -0.000035 0.000002 -0.257236 0.060858 0.018026 0.000017 0.000012 -0.000000 -0.000027 0.000018 0.000006 0.000018 0.000015 0.000001 -0.238706 0.105101 -0.018138 0.000025 0.000021 -0.000002 0.000038 0.000022 0.000013 -0.000015 -0.000005 0.000009 -0.055325 -0.041938 -0.041871 0.000023 0.000032 0.000009 -0.000015 -0.000014 -0.000000 0.000048 0.000028 0.000038 -0.308678 0.016710 0.021633 -25.233108 2.177629 0.139548 19.568997 -0.000040 -0.000012 -0.013953 0.231498 -0.484130 -0.000002 0.000025 0.000000 0.249057 0.031547 0.134736 -10.242428 4.087978 -0.281696 1.776632 0.000006 -0.000002 -0.016350 0.125927 -0.263391 0.000011 0.000024 -0.000001 
0.059542 0.258492 2.378081 5.050408 -1.144780 -0.000020 0.000000 0.154442 0.259456 0.000001 0.000009 0.000003 0.022393 0.818742 1.519711 -0.012016 2.730698 5.070929 -0.000000 0.012357 0.660221 0.000007 -0.000020 -0.000019 0.000007 -0.000075 0.000030 0.059990 -0.196462 0.637146 0.000011 14.409583 -0.000006 59.065939 38.702044 -61.627738 0.000003 0.000003 -1.288517 0.000016 -0.000000 0.000001 0.267438 -0.074282 0.023388 0.000003 -0.000008 -0.000006 -0.000006 0.000007 0.000004 -0.000005 0.000009 -0.000001 0.271428 -0.006468 0.027009 0.000004 -0.000006 0.000000 0.000002 -0.000000 -0.000006 0.000008 0.000002 0.000004 0.257235 0.060858 0.018026 0.000003 -0.000001 0.000001 -0.000001 -0.000001 0.000001 0.000004 -0.000003 -0.000001 0.238705 0.105100 -0.018139 -0.000002 0.000002 0.000003 0.000001 0.000009 0.000004 0.000004 0.000001 -0.000004 0.055325 -0.041941 -0.041874 -0.000003 -0.000002 -0.000005 -0.000006 -0.000004 0.000006 0.000003 0.000012 -0.000016 -0.059990 -0.196459 0.637146 -0.000015 -14.798252 -0.000011 62.711559 -33.642899 69.704382 0.000007 0.000016 -0.049769 0.000026 0.000014 0.000011 -0.267439 -0.074281 0.023391 0.000022 0.000018 0.000006 -0.000000 -0.000002 0.000002 -0.000054 -0.000015 -0.000030 -0.271430 -0.006468 0.027012 0.000014 0.000018 0.000002 0.000015 0.000021 -0.000003 -0.000016 -0.000035 0.000002 -0.257236 0.060858 0.018026 0.000017 0.000012 -0.000000 -0.000027 0.000018 0.000006 0.000018 0.000015 0.000001 -0.238706 0.105101 -0.018138 0.000025 0.000021 -0.000002 0.000038 0.000022 0.000013 -0.000015 -0.000005 0.000009 -0.055325 -0.041938 -0.041871 0.000023 0.000032 0.000009 -0.000015 -0.000014 -0.000000 0.000048 0.000028 0.000038 -0.308678 0.016710 0.021633 -25.233108 2.177629 0.139548 19.568997 -0.000040 -0.000012 -0.013953 0.231498 -0.484130 -0.000002 0.000025 0.000000 0.249057 0.031547 0.134736 -10.242428 4.087978 -0.281696 1.776632 0.000006 -0.000002 -0.016350 0.125927 -0.263391 0.000011 0.000024 -0.000001 
0.062978 0.257571 2.378258 4.989183 -1.134498 0.173504 0.000000 0.154442 0.259456 0.000011 0.000009 0.000005 0.029339 0.811386 1.482127 0.008491 2.708553 4.977071 -0.000000 0.012357 0.660221 0.000007 -0.000022 -0.000019 0.000003 -0.000079 0.000031 0.059990 -0.196462 0.637146 0.000007 14.515144 0.000014 59.382389 38.292312 -61.845853 0.000062 0.000069 -1.295885 0.000014 0.000000 0.000001 0.267438 -0.074282 0.023388 0.000002 -0.000010 -0.000006 -0.000010 0.000006 0.000004 0.000004 0.000009 -0.000001 0.271428 -0.006468 0.027009 -0.000001 -0.000005 -0.000001 -0.000002 0.000001 -0.000006 0.000004 0.000002 0.000003 0.257235 0.060858 0.018026 0.000000 -0.000000 -0.000000 -0.000001 -0.000001 0.000001 0.000002 -0.000002 -0.000000 0.238704 0.105100 -0.018139 -0.000008 0.000002 0.000002 -0.000000 0.000009 0.000003 -0.000002 0.000002 -0.000005 0.055325 -0.041941 -0.041874 -0.000010 0.000000 -0.000011 -0.000005 -0.000003 0.000003 0.000003 0.000015 -0.000019 -0.059990 -0.196459 0.637146 -0.000005 -14.877173 -0.000020 62.813698 -33.132575 69.453127 0.001859 -0.001833 0.590224 0.000029 0.000015 0.000011 -0.267439 -0.074281 0.023391 0.000017 0.000018 0.000003 0.000004 -0.000003 0.000002 -0.000048 -0.000014 -0.000031 -0.271429 -0.006468 0.027012 0.000010 0.000016 0.000001 0.000009 0.000020 -0.000003 -0.000010 -0.000035 0.000001 -0.257236 0.060858 0.018026 0.000018 0.000011 -0.000002 -0.000023 0.000020 0.000006 0.000006 0.000015 -0.000000 -0.238706 0.105101 -0.018138 0.000023 0.000019 -0.000005 0.000039 0.000018 0.000013 -0.000017 -0.000006 0.000007 -0.055325 -0.041938 -0.041871 0.000019 0.000027 0.000009 -0.000020 -0.000013 0.000002 0.000044 0.000026 0.000038 -0.308673 0.016718 0.021707 -25.010956 2.252664 0.300790 19.368487 -0.000040 -0.000012 -0.112951 0.131887 -0.274664 0.000002 0.000025 -0.000000 0.249057 0.031547 0.134736 -10.336225 4.190650 -0.259678 2.103211 0.000006 -0.000001 -0.243400 0.103889 -0.215375 0.000011 0.000024 -0.000001 
0.066565 0.256910 2.378381 4.933608 -1.120134 0.351462 0.000000 0.154442 0.259456 0.000024 0.000012 0.000011 0.032342 0.807286 1.461422 0.026664 2.686358 4.879138 -0.000000 0.012356 0.660220 -0.000000 -0.000027 -0.000020 -0.000016 -0.000085 0.000030 0.059990 -0.196462 0.637145 0.000005 14.603335 0.000001 59.628528 37.838568 -62.056797 -0.000354 -0.000355 -1.106825 0.000012 -0.000002 0.000001 0.267438 -0.074282 0.023388 0.000009 -0.000008 -0.000006 -0.000009 0.000008 0.000005 0.000004 0.000009 -0.000002 0.271428 -0.006468 0.027009 0.000010 -0.000005 -0.000000 0.000002 -0.000000 -0.000007 0.000005 0.000004 0.000004 0.257235 0.060858 0.018026 0.000008 0.000000 0.000000 0.000001 -0.000003 0.000000 0.000001 -0.000003 -0.000002 0.238705 0.105100 -0.018139 0.000004 0.000001 0.000004 -0.000003 0.000009 0.000005 0.000005 0.000002 -0.000004 0.055325 -0.041941 -0.041874 -0.000001 0.000000 -0.000014 -0.000009 -0.000002 -0.000001 0.000008 0.000011 -0.000015 -0.059990 -0.196459 0.637146 -0.000011 -14.945704 -0.000015 62.886610 -32.717699 69.043008 0.004603 -0.004490 1.525740 0.000023 0.000013 0.000010 -0.267440 -0.074281 0.023391 0.000022 0.000018 0.000006 0.000004 -0.000002 0.000001 -0.000052 -0.000017 -0.000030 -0.271430 -0.006468 0.027012 0.000014 0.000016 0.000001 0.000013 0.000021 -0.000002 -0.000011 -0.000036 0.000002 -0.257236 0.060858 0.018026 0.000021 0.000013 -0.000001 -0.000030 0.000020 0.000006 0.000011 0.000016 0.000001 -0.238707 0.105101 -0.018138 0.000030 0.000019 -0.000005 0.000036 0.000018 0.000012 -0.000019 -0.000006 0.000006 -0.055325 -0.041938 -0.041871 0.000027 0.000030 0.000007 -0.000018 -0.000013 0.000002 0.000050 0.000028 0.000032 -0.308664 0.016732 0.021817 -24.769754 2.316685 0.463547 19.113279 -0.000041 -0.000012 -0.228022 0.134408 -0.278241 -0.000002 0.000025 -0.000000 0.249057 0.031547 0.134736 -10.364669 4.291413 -0.242671 2.271431 0.000006 -0.000001 -0.475169 0.069107 -0.142641 0.000014 0.000024 -0.000001 
0.069712 0.256599 2.378521 4.877595 -1.101804 0.526728 0.000000 0.154442 0.259456 0.000045 0.000018 0.000021 0.036056 0.801533 1.432575 0.042449 2.664067 4.777234 -0.000000 0.012356 0.660220 -0.000003 -0.000036 -0.000023 -0.000043 -0.000099 0.000030 0.059990 -0.196462 0.637146 0.000012 14.675326 0.000001 59.735844 37.384217 -62.133883 -0.000783 -0.000798 -0.889039 0.000008 -0.000001 0.000001 0.267439 -0.074282 0.023388 0.000005 -0.000008 -0.000006 -0.000005 0.000007 0.000004 -0.000001 0.000009 -0.000001 0.271429 -0.006468 0.027009 0.000004 -0.000005 0.000000 0.000002 0.000000 -0.000007 0.000007 0.000003 0.000003 0.257235 0.060858 0.018026 0.000005 -0.000000 0.000001 -0.000001 -0.000001 0.000001 0.000005 -0.000002 -0.000001 0.238705 0.105100 -0.018139 -0.000003 0.000001 0.000004 -0.000003 0.000009 0.000005 0.000007 0.000001 -0.000002 0.055326 -0.041941 -0.041874 -0.000006 -0.000001 -0.000009 -0.000003 -0.000004 0.000003 0.000006 0.000013 -0.000015 -0.059990 -0.196459 0.637146 -0.000009 -15.005173 -0.000016 63.043916 -32.086661 69.047229 0.004767 -0.004647 1.583489 0.000027 0.000014 0.000011 -0.267439 -0.074281 0.023391 0.000020 0.000020 0.000004 0.000001 -0.000004 0.000003 -0.000062 -0.000017 -0.000030 -0.271429 -0.006468 0.027012 0.000013 0.000018 0.000002 0.000020 0.000020 -0.000003 -0.000012 -0.000036 0.000001 -0.257235 0.060858 0.018026 0.000021 0.000012 -0.000002 -0.000029 0.000019 0.000007 0.000013 0.000014 0.000001 -0.238706 0.105101 -0.018138 0.000029 0.000021 -0.000001 0.000041 0.000016 0.000016 -0.000018 -0.000005 0.000009 -0.055324 -0.041938 -0.041871 0.000027 0.000031 0.000009 -0.000014 -0.000012 0.000003 0.000054 0.000029 0.000037 -0.308653 0.016751 0.021968 -24.571141 2.366046 0.627335 18.923929 -0.000040 -0.000012 -0.217201 0.150588 -0.311506 -0.000001 0.000026 -0.000000 0.249057 0.031547 0.134737 -10.291737 4.372018 -0.233148 2.202235 0.000007 -0.000002 -0.529932 0.066567 -0.138225 0.000012 0.000024 -0.000001 
0.072389 0.256076 2.378851 4.818185 -1.082102 0.701186 0.000000 0.154442 0.259456 0.000085 0.000028 0.000038 0.036199 0.795489 1.403029 0.055871 2.641652 4.671599 -0.000000 0.012356 0.660221 -0.000012 -0.000049 -0.000025 -0.000086 -0.000118 0.000029 0.059990 -0.196462 0.637146 0.000008 14.733408 0.000012 59.887980 36.875399 -62.375125 -0.002013 -0.002064 -0.369798 0.000016 -0.000001 0.000001 0.267438 -0.074282 0.023388 0.000004 -0.000011 -0.000006 -0.000005 0.000007 0.000005 -0.000001 0.000010 -0.000002 0.271428 -0.006468 0.027009 0.000002 -0.000006 -0.000001 -0.000001 -0.000000 -0.000007 0.000004 0.000003 0.000004 0.257236 0.060858 0.018026 0.000003 -0.000002 -0.000001 -0.000000 -0.000002 0.000001 0.000001 -0.000003 -0.000001 0.238705 0.105100 -0.018139 -0.000003 0.000001 0.000001 0.000004 0.000009 0.000006 0.000007 0.000004 -0.000003 0.055325 -0.041941 -0.041874 -0.000009 -0.000001 -0.000010 -0.000005 0.000001 0.000007 0.000004 0.000014 -0.000020 -0.059990 -0.196459 0.637146 -0.000007 -15.057133 -0.000019 63.293000 -31.284131 69.427363 0.002903 -0.002862 0.955508 0.000027 0.000013 0.000010 -0.267439 -0.074281 0.023391 0.000019 0.000021 0.000005 0.000001 -0.000001 0.000002 -0.000057 -0.000015 -0.000030 -0.271429 -0.006468 0.027012 0.000012 0.000016 0.000001 0.000017 0.000019 -0.000004 -0.000014 -0.000035 0.000002 -0.257236 0.060858 0.018026 0.000020 0.000012 -0.000002 -0.000027 0.000020 0.000006 0.000011 0.000016 0.000001 -0.238706 0.105101 -0.018138 0.000018 0.000022 -0.000004 0.000036 0.000016 0.000013 -0.000016 -0.000005 0.000009 -0.055324 -0.041938 -0.041871 0.000022 0.000032 0.000007 -0.000013 -0.000015 -0.000003 0.000052 0.000031 0.000037 -0.308640 0.016776 0.022163 -24.369289 2.397094 0.788368 18.736939 -0.000040 -0.000012 -0.066530 0.162515 -0.337984 -0.000003 0.000026 0.000000 0.249057 0.031547 0.134737 -10.144253 4.431802 -0.228176 1.986202 0.000007 -0.000002 -0.403476 0.119182 -0.248554 0.000011 0.000024 -0.000001 
